<svg width="14" height="12" viewBox="0 0 14 12" fill="none" xmlns="http://www.w3.org/2000/svg">
<g clip-path="url(#clip0_226_228)">
<path d="M0.0537789 9.75049L0.510477 9.95403C0.496005 9.9865 0.496766 10.0175 0.511306 10.0489C0.52658 10.0819 0.562047 10.1234 0.629989 10.1488L0.631329 10.1493C0.785063 10.2072 0.923649 10.125 0.959668 10.047L1.41356 10.2567L0.959082 10.0483C1.017 9.92201 1.50691 8.92416 2.75957 7.97129L3.14501 7.67809L3.45037 8.05398C4.10388 8.85847 5.36051 9.64063 7.02478 9.47989L7.03235 9.47916L7.03994 9.47866C10.3566 9.25986 12.7068 6.56463 12.7068 3.21508C12.7068 2.32355 12.5123 1.40334 12.172 0.631521C11.3466 1.79571 9.97321 2.50049 8.43722 2.50049H6.60277C4.57789 2.50049 2.97525 3.86507 2.73207 5.55388C4.21482 4.76325 6.19427 4.16716 8.80411 4.16716C9.23583 4.16716 9.671 4.49697 9.671 5.00049C9.671 5.50402 9.23583 5.83383 8.80411 5.83383C3.25466 5.83383 0.978302 8.91125 0.509973 9.95516L0.0537789 9.75049ZM0.0537789 9.75049C-0.0975633 10.0901 0.0812957 10.4776 0.455065 10.6172C0.831128 10.7588 1.25764 10.5942 1.41357 10.2567C1.44388 10.1907 1.79291 9.46616 2.67561 8.68625C2.67514 8.68567 2.67467 8.68508 2.67419 8.6845L2.72152 8.64606C2.82755 8.55408 2.94102 8.46148 3.06228 8.36924L0.0537789 9.75049ZM12.1809 0.371531L12.075 0.423749C12.075 0.423734 12.075 0.423719 12.075 0.423704L12.1809 0.371507L12.1831 0.370415L12.5235 0.202576L12.1831 0.370438L12.1809 0.371531Z" fill="url(#paint0_linear_226_228)" stroke="url(#paint1_linear_226_228)"/>
</g>
<defs>
<linearGradient id="paint0_linear_226_228" x1="0" y1="0" x2="10.4295" y2="12.9115" gradientUnits="userSpaceOnUse">
<stop offset="0.15625" stop-color="#12EBC4"/>
<stop offset="1" stop-color="#07D741"/>
</linearGradient>
<linearGradient id="paint1_linear_226_228" x1="0" y1="0" x2="10.4295" y2="12.9115" gradientUnits="userSpaceOnUse">
<stop offset="0.15625" stop-color="#12EBC4"/>
<stop offset="1" stop-color="#07D741"/>
</linearGradient>
<clipPath id="clip0_226_228">
<rect width="13.2081" height="12" fill="white"/>
</clipPath>
</defs>
</svg>
